<svg xmlns="http://www.w3.org/2000/svg" viewBox="0 0 947.501 941.53" width="947.501" height="941.53">
				<path d="M489.281 0c58.181.194 83.935 24.107 116 49 74.449-2.332 133.021 30.025 150 87 94.65-.018 147.58 74.337 145 172 25.56 19.159 50.31 71.246 41 120-2.33 12.188-19.17 57.674-19 58 6.23 18.015 17.17 33.884 22 55 12.9 56.332-15.27 113.873-44 137q-13.995 10-28 20c-6.39 8.975-9.84 37.159-17 49-20.17 33.346-51.356 58.026-95 68-12.783 85.79-112.807 157.6-211 112-48.1 24.17-130.342 18.63-160-20-111.373 46.15-186.03-17.46-215-104-43.083-13.973-81.422-65.685-82-122-53.727-16.9-108.166-95.689-88-174 6.121-23.77 18.234-42.085 30-60-14.075-81.144 10.808-109.645 48-153-28.756-97.759 61.359-182.087 145-182 12.135-32.011 54.912-55.707 91-64 25.028-5.752 61.091 7.2 72-7 15.363-7.168 27.2-21.764 44-29 16.254-7 37.491-4.891 55-12zm-5 43c-22.128 8.485-43.843 7.343-57 24v1c23.12 7.958 38.823 28.551 57 42h6c13.908-18.273 42.391-38.265 66-46l-2-3c-21.362-8.7-37.065-17.954-70-18zm-145 45l-31 8c-33.69 14.458-52.183 41.194-62 80-2.247 8.881-7.254 27.414-3 38 15.258-6.8 39.31-15.394 64-11 8.82 1.569 26.714 9.448 31 7 9.72-4.22 16.8-9.991 29-13 5.385-32.751 36.047-64.778 65-74l-3-4c-28.785-12.772-44.874-30.939-90-31zm272 3c-26.878 10.765-52.363 12.883-70 32v1c28.329 9.764 57.489 41.472 63 74 13.667 1.19 22.341 7.788 31 14 35.591-11.119 59.345-5.38 93 2v-16c-16.787-64.246-36.061-108.011-117-107zm-130 61c-33.492 13.223-54.287 16.906-70 47 31.441 6.957 67.721 29.895 74 62h1c7.407-37.407 44.172-45.5 74-61-13.064-26.963-39.772-47.457-79-48zm-278 5c-46.049 23.788-82.544 43.055-82 113 14.444-2.838 69.114-18.334 79-26-.521-31.06-1.5-62.673 7-87h-4zm565 23c1.874 19.742 2.276 42.264 2 64 22.086 16.307 63.08 20.649 88 33-.9-49.162-43.078-93.925-90-97zm-391 58c-25.288 14.73-44.126 54.123-26 87 22.99-10.876 48.291-1.268 64 9v-2l5-24c5.809-14.2 16.875-19.643 26-30-9.629-25.4-33.867-40.475-69-40zm203 1c-21.353 10.311-51.8 12.991-55 41 18.6 6.655 30.18 29.458 30 55 18.227-11.858 39.129-18.037 65-10 15.485-35.049 6.9-87.294-40-86zm-288 6c-14.317 5.377-28.254 4.21-40 11-29.969 17.324-55.1 63.581-34 107 23.92-14.754 60.063-31.761 95-18-13.086-30.613-16.374-63.5-1-97l-1-1zm378 1l-9 2c14.44 36.028 10.239 65.541-3 97h1c33.868-13.873 71.248 5.779 93 20l2-1c19.039-65.933-14.562-118.688-84-118zm-499 52c-33.675 16.665-61.719 20.815-82 50-38.617 55.571-6.828 127.442 36 155 6.778-29.9 28.368-64.047 56-73-.345-14.748 3.216-24.617 8-34-13.68-11.717-25.672-46.773-21-75zm629 3c5.605 34.517 2.647 78.7-18 96 2.95 6.7 4.628 28.161 10 34 28.3 27.9 38.67 30.038 54 74 1.67-1.667 3.33-3.333 5-5 31.52-15 60.44-79.591 42-127-14.41-37.049-49.39-64.572-93-72zm-324 12l-14 7c-8.318 25.281 1.714 50.63 8 72a77.8 77.8 0 0131 0c3.721-17.829 25.246-64.469 1-76-5.961-3.481-16.3-3.239-26-3zm-103 49c-13.149 7.236-26.49 16.4-27 36 4.4 9.352 54.248 46.342 62 37l18-22c-10.989-18.709-27.115-47.911-53-51zm219 1c-20.859 13.478-34.121 28.677-47 50l19 24c21.528-5.246 60.234-19.332 61-45-5.239-13.689-13.879-29.075-33-29zm-312 19c-22.088 10.372-50.054 14.166-56 40-5.736 24.92 39.8 78.794 56 66 11.7-22.531 19.874-37.061 47-44l-8-8c-6.712-14.106-19.352-26.045-15-49-8.107-2.16-13.289-4.8-24-5zm402 0l-15 5c4.263 28.665-11.065 41.854-23 57v1c17.048 3.232 32.237 14.3 40 27 3.654 5.978 3.054 15.158 10 18 72.9-19.094 68.557-97.313-12-108zm-203 51c-19 8.444-33.891 14.12-39 36-6.909 29.588 19.1 61.473 50 56 57-10.095 54.365-93.7-11-92zm-286 39c-35.472 38.078-45 92.323 1 128 9.216 7.148 17.868 14.546 32 17 .8-35.556 17.089-74.026 43-85v-1c-41.257-.99-57.111-34.964-76-59zm585 2c-12.46 30.978-40.105 48.359-75 58l1 2c24.66 10.269 38.078 50.415 39 84h3c55.642-20.336 92.07-99.923 32-144zm-424 8c-12.008 4.67-21.1 4.79-30 11-5.1 15.122-2.023 38.087 11 44 19.641 11.173 56.111-17.342 69-23l-8-30zm247 0l-28 3c-.4 12.231-6.663 23.61-4 31 19.994 8.037 39.117 28.239 67 22 7.591-5.5 9.438-12.152 12-23 6.825-28.9-19.637-32.709-47-33zm-546 10c-21.571 63.834-7.213 113.1 41 143 3.724-23.344 30.866-64.021 24-80l-47-41zm836 29c-10.49 13.89-27.1 25.59-42 35-1.48 34.575 17.66 52.715 22 89 23.47-17.8 50.32-90.766 20-124zm-457 30c-10.94 13.893-58.778 53.364-29 74 7.651 5.3 14.847 10.02 28 10 16.2-8.257 33.112-46.959 27-72-10.565-1.664-18.5-7.1-26-12zm101 1c-6.882 5.537-16.308 9.428-26 12 3.94 25.344 5.728 62.194 27 70 15.665 6.7 42.846-11.253 39-29-3.842-17.73-24.83-46.271-40-53zm-237 12c-17.1 13.125-44.221 52.489-24 82 16.781 24.491 72.615 18.749 90 0-10.909-19.31-14.678-42.114-5-66-28.064 8.439-44.661-7.779-61-16zm373 0c-11.211 15.008-32.837 19.813-59 17 2.057 10.809 9.116 22.752 6 38-1.951 9.548-7.075 16.436-10 24l-2 3 9 9c24.3 11.759 71.748 14.083 83-12 12.27-28.443-5.813-72.345-27-79zm-524 50c-31.047 74.422-1.193 138.667 65 157 15.973 4.424 43.8 6.223 61 1v-1c-10.028-12.5-16.2-31.738-20-50-2.136-10.278 3.886-30.794 0-35l-20-25c-41.328-.61-65.472-25.01-86-47zm672 5c-11.6 24.111-49.653 41.564-84 43-2.957 9.9-11.162 20.957-20 25 6.3 39.713-9.544 61.516-19 88 69.14 3.488 110.59-15.678 129-68 8.69-24.7 8.01-68.412-6-88zm-386 58l-2 22c3.941 17.092 33.544 56.977 59 51 27.237-6.395 50.4-37.945 48-72-30.006-3.562-38.53-17.526-53-36h-1c-5.98 18.7-26.35 34.865-51 35zm-45 5c-16.925 22.367-55.773 24.856-93 21v8c16.374 59.647 67.586 101.137 133 59-13.736-18.381-30.653-33.841-38-59l-2-29zm193 0c2.854 44.42-20.772 62.331-40 87l1 2c11.8 4.989 22.138 12.14 37 15 55.958 10.767 93.329-33.938 96-81-42.819 4.684-69.6-5.395-94-23zm-114 109c-18.462 27.84-48.318 28.13-86 38 30.8 64.26 113.886 101.2 176 39 10.549-10.56 22.955-23.34 28-39-41.059-4.56-59.477-18.84-84-38-11.815 1.247-22.042.93-34 0zm-163 18c-12.919 7.09-37.122 8.6-55 9h-25c15.808 33.41 55.4 70.08 110 60 9.343-1.72 17.31-1.01 23-6-12.373-20.59-22.84-60.6-53-63zm355 1c-5.91 4.83-18.77 7.65-23 14l-17 35q-14 18.495-28 37c68.6 10.28 105.927-29.57 124-77-20.237-2.24-38.865-4.78-56-9z" fill="#730f0e" fill-rule="evenodd" />
			</svg>