<svg xmlns="http://www.w3.org/2000/svg" width="56.875" height="411.094"><path d="M56.407 50.265c-7.08-.54-14.76-3.3-19.92-11.28h15.18c2.16 0 3.12-.96 3.12-2.64 0-2.1-1.56-3.12-3.42-3.12a3.018 3.018 0 00-3.3 2.46h-12.18a22.857 22.857 0 00.42-4.02c0-.84-.54-1.08-3.9-1.08 8.819-5.88 11.879-14.879 11.879-23.339v-.54h4.92c-.06 7.68-.54 14.159-1.2 16.979-.24.96-.54 1.2-1.2 1.2h-5.58v2.82l3.72.18a2.386 2.386 0 002.7 2.7 4.653 4.653 0 004.38-3.78c.84-3.06 1.62-11.939 1.62-18.959a2.758 2.758 0 001.92-2.82c0-1.62-1.2-3.06-3.6-3.06a2.558 2.558 0 00-2.46 1.56h-12.54v3.18h3.12v.48c0 5.64-1.14 11.4-5.1 16.559l-.48-2.16c-2.34.72-4.56 1.32-6.6 1.86v-5.76h4.8c1.92 0 2.819-.72 2.819-2.46a2.679 2.679 0 00-3-2.76 2.482 2.482 0 00-2.64 1.92h-1.98v-5.46h5.22c1.92 0 2.819-.78 2.819-2.46 0-1.86-1.259-2.76-3-2.76a2.523 2.523 0 00-2.64 1.92h-2.4v-4.26c0-.6-.42-1.38-2.04-1.38s-2.1.78-2.1 1.38v4.26h-5.7v3.3h5.7v5.46h-5.34v3.3h5.34v6.72a38.079 38.079 0 01-6.18 1.08c.3 3.3.84 4.14 1.74 4.14 1.08 0 8.46-2.46 15.42-5.64a25.428 25.428 0 01-6.12 5.64l1.92 2.04a9.559 9.559 0 001.32-.78 40.338 40.338 0 01-.6 4.8h-13.86v3.3h12.96c-2.34 6.78-7.62 11.46-18.6 14.159l1.62 2.58c12.12-2.4 18.36-7.8 21.12-15 5.4 9.3 13.679 14.1 17.7 14.1 1.62 0 2.1-.96 2.4-2.1l1.5-.24zm-39-42.478a2.881 2.881 0 00-3.06-2.88 2.341 2.341 0 00-2.52 1.68H5.589v-.3c0-.66-.42-1.38-1.92-1.38s-1.86.72-1.86 1.38v39.238h3.78v-6.66h6.119v3.42h3.84v-31.8a2.883 2.883 0 001.86-2.699zm-5.7 27.9H5.589V9.826h6.119v25.859zm43.739 49.5c0-1.98-1.38-3.3-3.72-3.3-2.04 0-3.24 1.02-3.54 2.58h-9.48v-4.92c0-.78-.48-1.559-2.4-1.559-1.8 0-2.4.779-2.4 1.559v4.92h-12.54v-4.92c0-.78-.48-1.559-2.4-1.559-1.86 0-2.4.779-2.4 1.559v4.92h-15.3v3.3h15.3v5.46h4.8v-5.46h12.54v5.4h4.8v-5.4h13.56c2.221-.001 3.181-.901 3.181-2.581zm-3.84 43.138c0-2.459-3.3-6.359-14.52-11.939l-1.8 2.22c4.26 2.88 9.12 7.32 10.62 9.479a1.526 1.526 0 00-.12.42c0 1.5 1.5 2.46 3.06 2.46a2.617 2.617 0 002.761-2.641zm5.28-21.959c-7.68-.54-20.04-4.5-27.239-13.319a3.043 3.043 0 00.48-1.26c0-.84-.6-1.32-4.2-1.86-1.08 2.34-9.12 12.48-25.919 21.179l1.98 2.34c12.9-5.76 22.079-13.739 26.039-18.3a46.256 46.256 0 0014.7 12.539 6.571 6.571 0 00-1.62-.24 3.124 3.124 0 00-3.42 2.58h-7.559v-6.9c0-.779-.48-1.619-2.4-1.619-1.98 0-2.4.84-2.4 1.619v6.9H10.449v3.3h14.879v19.439h4.8v-19.439h11.639c2.16 0 3.12-.9 3.12-2.58a3.021 3.021 0 00-1.2-2.52c3.66 1.86 6.9 2.94 8.76 2.94a2.353 2.353 0 002.52-2.34l1.74-.36zm-37.679 11.94c0-1.08-.78-1.5-4.38-1.98-.84 1.86-5.039 7.86-13.379 14.039l2.34 2.04c10.32-6.42 15.42-12.84 15.42-14.1zm33.479 40.861c0-1.92-.84-2.64-2.76-2.64-4.5 0-5.58 1.2-5.58 2.76 0 1.44.78 2.1 2.7 2.82-1.5 11.04-10.8 31.019-40.138 37.679l1.98 3.3c40.019-9.601 43.799-39.48 43.799-43.92zm-32.639 17.7a193.887 193.887 0 00-8.88-18.6 3.638 3.638 0 00-3.059-2.22c-1.32 0-3.72.96-3.72 3.06a2.936 2.936 0 002.7 3.12 3.012 3.012 0 00.72-.12c1.2 1.92 3.839 7.02 7.919 16.5zm28.8 52.981v-3.3h-35.7a2.969 2.969 0 00-3.3-2.52c-2.34 0-3.66 1.14-3.66 3.12 0 1.8.96 2.7 3.36 2.7h39.3zm2.46 11.82c0-1.5-.9-2.28-2.82-2.28l-38.158.54a3.057 3.057 0 00-3.36-2.52c-2.34 0-3.6 1.14-3.6 3.18 0 1.68.96 2.88 3.18 2.82l39.238-.6c0 6.539-9.84 23.579-35.818 25.619l1.379 3.3c27.119-1.803 39.959-19.862 39.959-30.061zm4.32 95.758c-8.82-7.74-15.66-18.12-15.66-38.219 1.68-.54 2.64-1.26 2.64-2.94 0-1.62-1.56-2.7-4.38-2.7-2.58 0-3.479 1.08-3.479 2.58 0 24.3 8.219 35.4 18.119 43.738zm-34.379-41.281c0-1.5-.9-2.58-3.48-2.58-2.82 0-4.38 1.08-4.38 2.7 0 1.68.96 2.4 2.64 2.94 0 20.1-6.839 30.479-15.659 38.219l2.76 2.459c9.899-8.339 18.119-19.439 18.119-43.738zm33.779 84.48v-3.66h-21.9v-12.66c0-1.44-.9-2.64-3.12-2.64-2.7 0-4.26 1.26-4.26 3a2.557 2.557 0 002.34 2.7v9.6H7.929a3.169 3.169 0 00-3.36-2.82c-2.4 0-3.6 1.32-3.6 3.36 0 1.86 1.02 3.12 3.36 3.12h23.7c-.48 15.659-5.82 22.979-22.859 27.3l1.86 3.179c18.3-4.319 25.439-13.2 26.039-30.478h21.959z" fill="#333" fill-rule="evenodd"/></svg>